<?xml version="1.0" encoding="UTF-8" standalone="no"?>
<svg width="180px" height="180px" viewBox="0 0 180 180" version="1.1" xmlns="http://www.w3.org/2000/svg" xmlns:xlink="http://www.w3.org/1999/xlink" xmlns:sketch="http://www.bohemiancoding.com/sketch/ns">
    <!-- Generator: Sketch 3.2.2 (9983) - http://www.bohemiancoding.com/sketch -->
    <title>apple</title>
    <desc>Created with Sketch.</desc>
    <defs></defs>
    <g id="Page-1" stroke="none" stroke-width="1" fill="none" fill-rule="evenodd" sketch:type="MSPage">
        <g id="apple" sketch:type="MSArtboardGroup" fill="#000000">
            <path d="M90.1956954,54.625516 L90.1534964,54.625516 L90.1534964,54.625516 C90.1605314,54.6310022 90.1675646,54.6364919 90.1745959,54.6419851 C90.1816272,54.6364919 90.1886604,54.6310022 90.1956954,54.625516 Z M93.5080638,52.3856373 L93.5080638,44.9008475 C93.5080638,41.8383829 97.9430123,37.432732 97.9430123,37.432732 C97.9430123,37.432732 95.6107149,36 94.4445661,36 C93.3932406,36 91.2905895,37.432732 91.2905895,37.432732 C91.2905895,37.432732 86.855641,42.2307052 86.855641,45.489331 L86.855641,52.3940443 C83.0053417,50.1621097 78.7334263,48.9200662 74.235952,48.9200662 C57.2566671,48.9200662 43.4922371,66.6227124 43.4922371,88.4600331 C43.4922371,110.297354 57.2566671,128 74.235952,128 C80.0712877,128 85.5269114,125.90911 90.1745959,122.278081 C94.8222835,125.909112 100.277906,128 106.11324,128 C123.092525,128 136.856955,110.297354 136.856955,88.4600331 C136.856955,66.6227124 123.092525,48.9200662 106.11324,48.9200662 C101.621416,48.9200662 97.3545838,50.158991 93.5080638,52.3856373 Z" id="Oval-38" sketch:type="MSShapeGroup"></path>
        </g>
    </g>
</svg>