<?xml version="1.0" encoding="UTF-8" standalone="no"?>
<svg width="180px" height="180px" viewBox="0 0 180 180" version="1.1" xmlns="http://www.w3.org/2000/svg" xmlns:xlink="http://www.w3.org/1999/xlink" xmlns:sketch="http://www.bohemiancoding.com/sketch/ns">
    <!-- Generator: Sketch 3.2.2 (9983) - http://www.bohemiancoding.com/sketch -->
    <title>carrot</title>
    <desc>Created with Sketch.</desc>
    <defs></defs>
    <g id="Page-1" stroke="none" stroke-width="1" fill="none" fill-rule="evenodd" sketch:type="MSPage">
        <g id="carrot" sketch:type="MSArtboardGroup" fill="#000000">
            <path d="M104.009274,51.1268179 C107.936685,52.1639597 110.960884,53.8010437 112.501141,55.5394526 C119.296003,63.2084649 115,79.7858196 115,99 C115,125.509668 106.045695,147 95,147 C83.954305,147 75,125.509668 75,99 C75,80.0339936 71.5832663,63.6371373 78.2366198,55.8410608 C79.6658775,54.1663261 82.0556681,52.5967945 85.2398641,51.5073381 L85.239867,51.5073428 C84.1328481,49.7681835 83.1116849,47.6489517 82.2996478,45.2906248 C79.8722624,38.2409857 83.1048299,30.7354992 83.1048299,30.7354992 C83.1048299,30.7354992 89.0644848,33.9981458 91.955755,39.9178485 C91.9729475,39.6927119 91.9914951,39.4662281 92.0114159,39.2385328 C92.6612355,31.8110604 96.1766025,26.0513716 96.1766025,26.0513716 C96.1766025,26.0513716 98.6384037,32.3339948 97.9885841,39.7614672 C97.935764,40.3652042 97.8749162,40.958876 97.8068083,41.5400524 C98.0791004,40.9737442 98.3734942,40.4038019 98.6895916,39.8335471 C102.304257,33.3125189 110.04493,30.692634 110.04493,30.692634 C110.04493,30.692634 111.925073,38.6454247 108.310408,45.1664529 C107.006865,47.5181078 105.512238,49.5539326 104.009274,51.1268179 Z" id="Oval-4" sketch:type="MSShapeGroup"></path>
        </g>
    </g>
</svg>