<?xml version="1.0" encoding="UTF-8" standalone="no"?>
<svg width="180px" height="180px" viewBox="0 0 180 180" version="1.1" xmlns="http://www.w3.org/2000/svg" xmlns:xlink="http://www.w3.org/1999/xlink" xmlns:sketch="http://www.bohemiancoding.com/sketch/ns">
    <!-- Generator: Sketch 3.2.2 (9983) - http://www.bohemiancoding.com/sketch -->
    <title>pears</title>
    <desc>Created with Sketch.</desc>
    <defs></defs>
    <g id="Page-1" stroke="none" stroke-width="1" fill="none" fill-rule="evenodd" sketch:type="MSPage">
        <g id="pears" sketch:type="MSArtboardGroup" fill="#000000">
            <path d="M45.7313433,97.834955 C43.9167004,98.2799134 42.1683037,99.6849633 40.7720845,102.050179 L33.6936357,114.041173 C31.3815959,116.773999 30,120.235146 30,124 C30,132.836556 37.6111593,140 47,140 C56.3888407,140 64,132.836556 64,124 C64,120.235146 62.6184041,116.773999 60.3063643,114.041173 L60.3063643,114.041173 L53.2279155,102.050179 C51.8378698,99.6954214 50.0986741,98.2922969 48.2925373,97.8408788 L48.2925373,95.7327206 C48.2925373,94.4484244 50,92.6008403 50,92.6008403 C50,92.6008403 49.1020615,92 48.6530923,92 C48.2483302,92 47.438806,92.6008403 47.438806,92.6008403 C47.438806,92.6008403 45.7313433,94.6129514 45.7313433,95.9795111 L45.7313433,97.834955 Z" id="Oval-37" sketch:type="MSShapeGroup" transform="translate(47.000000, 116.000000) rotate(35.000000) translate(-47.000000, -116.000000) "></path>
            <path d="M85.7313433,26.834955 C83.9167004,27.2799134 82.1683037,28.6849633 80.7720845,31.0501789 L73.6936357,43.0411733 C71.3815959,45.7739991 70,49.2351459 70,53 C70,61.836556 77.6111593,69 87,69 C96.3888407,69 104,61.836556 104,53 C104,49.2351459 102.618404,45.7739991 100.306364,43.0411733 L100.306364,43.0411733 L93.2279155,31.0501789 C91.8378698,28.6954214 90.0986741,27.2922969 88.2925373,26.8408788 L88.2925373,24.7327206 C88.2925373,23.4484244 90,21.6008403 90,21.6008403 C90,21.6008403 89.1020615,21 88.6530923,21 C88.2483302,21 87.438806,21.6008403 87.438806,21.6008403 C87.438806,21.6008403 85.7313433,23.6129514 85.7313433,24.9795111 L85.7313433,26.834955 Z" id="Oval-38" sketch:type="MSShapeGroup" transform="translate(87.000000, 45.000000) rotate(-22.000000) translate(-87.000000, -45.000000) "></path>
            <path d="M136.731343,104.834955 C134.9167,105.279913 133.168304,106.684963 131.772084,109.050179 L124.693636,121.041173 C122.381596,123.773999 121,127.235146 121,131 C121,139.836556 128.611159,147 138,147 C147.388841,147 155,139.836556 155,131 C155,127.235146 153.618404,123.773999 151.306364,121.041173 L151.306364,121.041173 L144.227916,109.050179 C142.83787,106.695421 141.098674,105.292297 139.292537,104.840879 L139.292537,102.732721 C139.292537,101.448424 141,99.6008403 141,99.6008403 C141,99.6008403 140.102062,99 139.653092,99 C139.24833,99 138.438806,99.6008403 138.438806,99.6008403 C138.438806,99.6008403 136.731343,101.612951 136.731343,102.979511 L136.731343,104.834955 Z" id="Oval-39" sketch:type="MSShapeGroup" transform="translate(138.000000, 123.000000) rotate(-22.000000) translate(-138.000000, -123.000000) "></path>
        </g>
    </g>
</svg>