<?xml version="1.0" encoding="UTF-8" standalone="no"?>
<svg width="180px" height="180px" viewBox="0 0 180 180" version="1.1" xmlns="http://www.w3.org/2000/svg" xmlns:xlink="http://www.w3.org/1999/xlink" xmlns:sketch="http://www.bohemiancoding.com/sketch/ns">
    <!-- Generator: Sketch 3.2.2 (9983) - http://www.bohemiancoding.com/sketch -->
    <title>seed</title>
    <desc>Created with Sketch.</desc>
    <defs></defs>
    <g id="Page-1" stroke="none" stroke-width="1" fill="none" fill-rule="evenodd" sketch:type="MSPage">
        <g id="seed" sketch:type="MSArtboardGroup" fill="#000000">
            <path d="M87.0516434,31.6011316 C86.7225957,31.1837903 86.4003325,30.7428128 86.088636,30.2807036 C83.2552535,26.0800414 84.1067867,20.5510799 84.1067867,20.5510799 C84.1067867,20.5510799 89.5521404,21.8327376 92.3855229,26.0333998 C92.4245571,26.0912704 92.463222,26.1491706 92.5015158,26.2070915 C92.5544914,25.9962397 92.6095106,25.7842437 92.6665744,25.5712785 C94.2922335,19.5042361 98.6290471,15.3948534 98.6290471,15.3948534 C98.6290471,15.3948534 100.14541,20.5001221 98.946647,26.1765508 C99.5510363,25.7852108 100.200995,25.4097616 100.888699,25.059359 C105.403352,22.7590281 110.787326,24.2780249 110.787326,24.2780249 C110.787326,24.2780249 109.010587,29.0955129 104.891501,31.522497 C106.217477,33.3395166 107,35.5783743 107,38 C107,44.0751322 102.075132,49 96,49 C89.9248678,49 85,44.0751322 85,38 C85,35.6131917 85.7601831,33.4039336 87.0516434,31.6011316 Z" id="Oval-8" sketch:type="MSShapeGroup"></path>
            <path d="M134.051643,116.811425 C133.722596,116.394083 133.400333,115.953106 133.088636,115.490997 C130.255254,111.290335 131.106787,105.761373 131.106787,105.761373 C131.106787,105.761373 136.55214,107.043031 139.385523,111.243693 C139.424557,111.301564 139.463222,111.359464 139.501516,111.417385 C139.554491,111.206533 139.609511,110.994537 139.666574,110.781572 C141.292234,104.714529 145.629047,100.605147 145.629047,100.605147 C145.629047,100.605147 147.14541,105.710415 145.946647,111.386844 C146.551036,110.995504 147.200995,110.620055 147.888699,110.269652 C152.403352,107.969321 157.787326,109.488318 157.787326,109.488318 C157.787326,109.488318 156.010587,114.305806 151.891501,116.73279 C153.217477,118.54981 154,120.788667 154,123.210293 C154,129.285425 149.075132,134.210293 143,134.210293 C136.924868,134.210293 132,129.285425 132,123.210293 C132,120.823485 132.760183,118.614227 134.051643,116.811425 Z" id="Oval-12" sketch:type="MSShapeGroup"></path>
            <path d="M135.051643,56.4037049 C134.722596,55.9863636 134.400333,55.5453861 134.088636,55.0832769 C131.255254,50.8826147 132.106787,45.3536532 132.106787,45.3536532 C132.106787,45.3536532 137.55214,46.6353109 140.385523,50.8359731 C140.424557,50.8938437 140.463222,50.9517439 140.501516,51.0096648 C140.554491,50.798813 140.609511,50.586817 140.666574,50.3738518 C142.292234,44.3068094 146.629047,40.1974267 146.629047,40.1974267 C146.629047,40.1974267 148.14541,45.3026954 146.946647,50.9791241 C147.551036,50.5877841 148.200995,50.2123349 148.888699,49.8619322 C153.403352,47.5616014 158.787326,49.0805982 158.787326,49.0805982 C158.787326,49.0805982 157.010587,53.8980862 152.891501,56.3250703 C154.217477,58.1420899 155,60.3809476 155,62.8025733 C155,68.8777055 150.075132,73.8025733 144,73.8025733 C137.924868,73.8025733 133,68.8777055 133,62.8025733 C133,60.415765 133.760183,58.2065069 135.051643,56.4037049 Z" id="Oval-17" sketch:type="MSShapeGroup"></path>
            <path d="M39.0516434,64.2062782 C38.7225957,63.7889369 38.4003325,63.3479594 38.088636,62.8858502 C35.2552535,58.685188 36.1067867,53.1562265 36.1067867,53.1562265 C36.1067867,53.1562265 41.5521404,54.4378841 44.3855229,58.6385464 C44.4245571,58.696417 44.463222,58.7543172 44.5015158,58.8122381 C44.5544914,58.6013863 44.6095106,58.3893903 44.6665744,58.1764251 C46.2922335,52.1093827 50.6290471,48 50.6290471,48 C50.6290471,48 52.1454101,53.1052687 50.946647,58.7816974 C51.5510363,58.3903574 52.2009946,58.0149082 52.8886985,57.6645055 C57.4033521,55.3641746 62.7873258,56.8831715 62.7873258,56.8831715 C62.7873258,56.8831715 61.0105872,61.7006595 56.8915009,64.1276436 C58.2174769,65.9446632 59,68.1835209 59,70.6051466 C59,76.6802788 54.0751322,81.6051466 48,81.6051466 C41.9248678,81.6051466 37,76.6802788 37,70.6051466 C37,68.2183383 37.7601831,66.0090802 39.0516434,64.2062782 Z" id="Oval-13" sketch:type="MSShapeGroup"></path>
            <path d="M89.0516434,89.2062782 C88.7225957,88.7889369 88.4003325,88.3479594 88.088636,87.8858502 C85.2552535,83.685188 86.1067867,78.1562265 86.1067867,78.1562265 C86.1067867,78.1562265 91.5521404,79.4378841 94.3855229,83.6385464 C94.4245571,83.696417 94.463222,83.7543172 94.5015158,83.8122381 C94.5544914,83.6013863 94.6095106,83.3893903 94.6665744,83.1764251 C96.2922335,77.1093827 100.629047,73 100.629047,73 C100.629047,73 102.14541,78.1052687 100.946647,83.7816974 C101.551036,83.3903574 102.200995,83.0149082 102.888699,82.6645055 C107.403352,80.3641746 112.787326,81.8831715 112.787326,81.8831715 C112.787326,81.8831715 111.010587,86.7006595 106.891501,89.1276436 C108.217477,90.9446632 109,93.1835209 109,95.6051466 C109,101.680279 104.075132,106.605147 98,106.605147 C91.9248678,106.605147 87,101.680279 87,95.6051466 C87,93.2183383 87.7601831,91.0090802 89.0516434,89.2062782 Z" id="Oval-14" sketch:type="MSShapeGroup"></path>
            <path d="M42.0516434,120.811425 C41.7225957,120.394083 41.4003325,119.953106 41.088636,119.490997 C38.2552535,115.290335 39.1067867,109.761373 39.1067867,109.761373 C39.1067867,109.761373 44.5521404,111.043031 47.3855229,115.243693 C47.4245571,115.301564 47.463222,115.359464 47.5015158,115.417385 C47.5544914,115.206533 47.6095106,114.994537 47.6665744,114.781572 C49.2922335,108.714529 53.6290471,104.605147 53.6290471,104.605147 C53.6290471,104.605147 55.1454101,109.710415 53.946647,115.386844 C54.5510363,114.995504 55.2009946,114.620055 55.8886985,114.269652 C60.4033521,111.969321 65.7873258,113.488318 65.7873258,113.488318 C65.7873258,113.488318 64.0105872,118.305806 59.8915009,120.73279 C61.2174769,122.54981 62,124.788667 62,127.210293 C62,133.285425 57.0751322,138.210293 51,138.210293 C44.9248678,138.210293 40,133.285425 40,127.210293 C40,124.823485 40.7601831,122.614227 42.0516434,120.811425 Z" id="Oval-16" sketch:type="MSShapeGroup"></path>
        </g>
    </g>
</svg>