<?xml version="1.0" encoding="UTF-8" standalone="no"?>
<svg width="180px" height="180px" viewBox="0 0 180 180" version="1.1" xmlns="http://www.w3.org/2000/svg" xmlns:xlink="http://www.w3.org/1999/xlink" xmlns:sketch="http://www.bohemiancoding.com/sketch/ns">
    <!-- Generator: Sketch 3.2.2 (9983) - http://www.bohemiancoding.com/sketch -->
    <title>strawberries</title>
    <desc>Created with Sketch.</desc>
    <defs></defs>
    <g id="Page-1" stroke="none" stroke-width="1" fill="none" fill-rule="evenodd" sketch:type="MSPage">
        <g id="strawberries" sketch:type="MSArtboardGroup" fill="#000000">
            <path d="M47.186201,63.3482215 C46.8399281,63.3777276 46.4954934,63.4132276 46.1530148,63.4546105 C45.7238074,62.1296396 45.0255873,60.6969763 44.0806149,59.2959971 C41.3741191,55.283452 35.8036397,54.308073 35.8036397,54.308073 C35.8036397,54.308073 34.6212571,59.8383149 37.3277529,63.85086 C37.7128852,64.4218421 38.1182511,64.9567936 38.5356666,65.4507825 L38.5356666,65.4507825 C28.7970499,69.4965844 22,78.665228 22,89.3280231 C22,95.4664144 24.2526175,101.109627 28.0222735,105.565352 L28.0222735,105.565352 L39.5633018,125.116021 C45.1709992,134.615541 54.2638076,134.616145 59.8718614,125.116021 L71.4128897,105.565352 C75.1825458,101.109627 77.4351633,95.4664144 77.4351633,89.3280231 C77.4351633,79.5029568 71.6641868,70.946487 63.1385167,66.4974683 L63.1385167,66.4974683 C67.3070874,64.2398148 68.9047954,58.991575 68.9047954,58.991575 C68.9047954,58.991575 63.5598712,57.1440388 59.2473962,59.3413546 C56.9156885,60.5294189 55.0646937,62.0708213 54.0176535,63.5529346 C53.4487466,63.4695376 52.874112,63.4024254 52.2943047,63.3521203 C53.1925152,61.6921066 54.0402839,59.5350601 54.6873935,57.1200141 C56.2402512,51.3246704 54.2615235,45.7591125 54.2615235,45.7591125 C54.2615235,45.7591125 49.7651162,49.5896632 48.2122585,55.3850069 C47.3988509,58.4206856 47.0638327,61.2618574 47.186201,63.3482215 Z" id="Oval-37" sketch:type="MSShapeGroup"></path>
            <path d="M131.186201,68.607334 C130.839928,68.6368401 130.495493,68.6723402 130.153015,68.713723 C129.723807,67.3887521 129.025587,65.9560889 128.080615,64.5551096 C125.374119,60.5425645 119.80364,59.5671855 119.80364,59.5671855 C119.80364,59.5671855 118.621257,65.0974274 121.327753,69.1099725 C121.712885,69.6809547 122.118251,70.2159061 122.535667,70.709895 L122.535667,70.709895 C112.79705,74.7556969 106,83.9243405 106,94.5871357 C106,100.725527 108.252618,106.36874 112.022274,110.824465 L112.022274,110.824465 L123.563302,130.375133 C129.170999,139.874654 138.263808,139.875258 143.871861,130.375133 L155.41289,110.824465 C159.182546,106.36874 161.435163,100.725527 161.435163,94.5871357 C161.435163,84.7620693 155.664187,76.2055995 147.138517,71.7565808 L147.138517,71.7565808 C151.307087,69.4989273 152.904795,64.2506876 152.904795,64.2506876 C152.904795,64.2506876 147.559871,62.4031513 143.247396,64.6004671 C140.915689,65.7885315 139.064694,67.3299338 138.017654,68.8120471 C137.448747,68.7286501 136.874112,68.6615379 136.294305,68.6112328 C137.192515,66.9512191 138.040284,64.7941726 138.687394,62.3791267 C140.240251,56.583783 138.261524,51.0182251 138.261524,51.0182251 C138.261524,51.0182251 133.765116,54.8487758 132.212259,60.6441195 C131.398851,63.6797981 131.063833,66.5209699 131.186201,68.607334 Z" id="Oval-38" sketch:type="MSShapeGroup" transform="translate(133.717582, 94.259113) rotate(-180.000000) translate(-133.717582, -94.259113) "></path>
        </g>
    </g>
</svg>