<?xml version="1.0" encoding="UTF-8" standalone="no"?>
<svg width="180px" height="180px" viewBox="0 0 180 180" version="1.1" xmlns="http://www.w3.org/2000/svg" xmlns:xlink="http://www.w3.org/1999/xlink" xmlns:sketch="http://www.bohemiancoding.com/sketch/ns">
    <!-- Generator: Sketch 3.2.2 (9983) - http://www.bohemiancoding.com/sketch -->
    <title>tomato</title>
    <desc>Created with Sketch.</desc>
    <defs></defs>
    <g id="Page-1" stroke="none" stroke-width="1" fill="none" fill-rule="evenodd" sketch:type="MSPage">
        <g id="tomato" sketch:type="MSArtboardGroup" fill="#000000">
            <path d="M87.1922502,52.1949283 C87.1274312,52.0970455 87.062033,51.9991918 86.9960582,51.9013803 C81.8697129,44.3012607 72.1075602,41.9217303 72.1075602,41.9217303 C72.1075602,41.9217303 70.6862199,51.6631744 75.6287922,59.2318986 C55.4772017,63.6888733 40.8176379,77.2746577 40.8176379,93.3427875 C40.8176379,113.035722 62.8373314,129 90,129 C117.162669,129 139.182362,113.035722 139.182362,93.3427875 C139.182362,78.9431363 127.409167,66.5370735 110.460782,60.9081521 C117.0822,56.362396 119.99692,48.648304 119.99692,48.648304 C119.99692,48.648304 110.30513,45.9967027 102.136916,50.1586155 C100.91151,50.7829912 99.7518474,51.4503472 98.6715073,52.1449713 C100.876839,41.8481812 98.19772,32.5888036 98.19772,32.5888036 C98.19772,32.5888036 90.4375133,40.046884 87.4962619,51.0237837 C87.391139,51.4161077 87.289802,51.8066005 87.1922502,52.1949283 Z" id="Oval-8" sketch:type="MSShapeGroup"></path>
        </g>
    </g>
</svg>